<?xml version="1.0" encoding="UTF-8"?>
<svg id="Layer_1" data-name="Layer 1" xmlns="http://www.w3.org/2000/svg" viewBox="0 0 429.34 512">
  <defs>
    <style>
      .cls-1 {
        fill: #dfad70;
      }
    </style>
  </defs>
  <path class="cls-1" d="M177.68,5.25c-.04.47.21.86-.25,1.22-.97.76-4.18,1.9-5.59,2.68-38.11,21.39-65.49,57.27-73.94,100.54-9.25,47.41,14.76,89.57,43,125.28l172.08,171.31c48.21,3.15,93.66,32.09,110.61,78.18,1.58,4.31,5.31,14.84,5.67,18.98s-2.68,8.36-6.95,8.56H5.37c-3.55-.05-5.43-3.27-5.37-6.56v-204.32c1.71-16.4,15.25-11.3,26.43-10.9,28.34,1.03,57.91-10.57,76.73-31.81,1.01-1.14,6.55-8.06,6.55-8.95,0-1.09-6.17-7.15-7.35-8.54-45.15-53.24-56-120.41-14.99-179.93,20.43-29.65,53.83-52.55,90.31-55.75ZM36.78,480.59h210.05l-106.92-106.7c-11.06-12.19-10.71-31.94,1.06-43.5l.95.55c49.95,49.96,99.96,99.81,150.23,149.44l90.03.22c1.33.01,2.55-.31,2.55-1.83,0-1.77-5.09-7.7-6.54-9.32-16.99-18.98-42.2-29.9-67.55-31.41-2.85-.17-6.95.47-9.54,0-1.18-.22-6.64-5.48-7.98-6.73-25.4-23.76-50.36-50.1-75.12-74.72-28.36-28.2-56.35-56.79-85.04-84.66-21.74,28.99-53.75,44.88-89.43,49.27-5.08.62-11.12-.81-11.74,6.15.29,49.81-.5,99.74.39,149.47.57,1.77,2.83,3.46,4.59,3.76Z"/>
  <path class="cls-1" d="M259.47.2c4.02-.26,8.32-.57,12.02,1.26l153.37,86.68c1.75,1.5,3.39,3.32,3.89,5.65,1.19,34.59.15,69.38.53,104.04-.4,5.8-2.99,10.21-9,11.27l-63.96.03c-1.89-.03-3.31.92-4.25,2.5-.69,45.81-.13,91.76-.28,137.63.44,17.74-19.72,28.7-33.99,17.66-52.92-52.25-105.58-104.8-158.19-157.37-24.93-29.63-35.02-70.45-24.72-108.19C149.54,47.57,203.8,3.85,259.47.2ZM319.96,324.39v-111.08c0-1.57-2.7-4.45-4.57-4.17h-60.03c-8.34-.64-13.92-8.7-18.39-14.98-22.1-31.04-27.72-72.24-17.53-108.79,5.38-19.3,15.76-37.27,29.78-51.5-37.89,7.72-73.34,38.16-83.75,75.82-8.17,29.55,1.38,62.43,22.73,83.96,26.21,26.42,53.11,52.43,79.51,78.67,17.44,17.34,34.64,34.92,52.25,52.07ZM283.29,48.27c-7,1.1-18.92,15.8-22.72,21.8-18.11,28.58-19.07,68.68-2.43,98.14,2.59,4.58,4.85,8.61,10.72,9.15h121.25c4.87-.48,7.01-3.95,7.35-8.54,1.32-17.69-1.04-37.01,0-54.88-.45-5.16-2.54-6.19-6.5-8.6-32.25-19.63-66.47-36.28-98.81-55.79-2.69-1.38-5.87-1.75-8.86-1.28Z"/>
  <path class="cls-1" d="M283.79,97.85h34.38c3.67,0,8.8,3.79,10.54,6.94,7.3,13.18-8.61,26.55-20.47,17.29-5.93-4.63-13.42-12.78-19.1-18.26-1.39-1.34-3.66-3.34-4.76-4.78-.31-.4-.77-.5-.59-1.19Z"/>
</svg>